<svg xmlns="http://www.w3.org/2000/svg" viewBox="0 0 1143.9 590.2" className="HeroSplitTextDesktop_desktop__Bey7n"><defs><mask id="rebel-mask"><rect className="rebelMask" x="0" y="0" width="591.4" height="166.8" style="fill: rgb(255, 255, 255); translate: none; rotate: none; scale: none; transform-origin: 0px 0px;" data-svg-origin="0 0" transform="matrix(1,0,0,1,0,0)"></rect></mask><mask id="against-mask"><rect className="againstMask" x="246.6" y="164.3" width="897.3" height="231" style="fill: rgb(255, 255, 255); translate: none; rotate: none; scale: none; transform-origin: 0px 0px;" data-svg-origin="0 0" transform="matrix(1,0,0,1,0,0)"></rect></mask><mask id="boring-mask"><rect className="boringMask" x="37" y="358.5" width="773.7" height="231.7" style="fill: rgb(255, 255, 255); translate: none; rotate: none; scale: none; transform-origin: 0px 0px;" data-svg-origin="0 0" transform="matrix(1,0,0,1,0,0)"></rect></mask></defs><g className="rebelLetters" mask="url(#rebel-mask)" style="opacity: 1; translate: none; rotate: none; scale: none; transform-origin: 0px 0px;" data-svg-origin="0 0" transform="matrix(1,0,0,1,0,0)"><rect y="47.1" width="30.6" height="117"></rect><path d="M75.5,72.2c-8.8,0-16.4,1.7-22.8,5.1c-6,3-11.3,7.2-15.5,12.3c-3.5,4.2-6.3,9-8.2,14.1l-0.2-12.9c0.4-2.8,1-5.6,1.9-8.3 c1.3-4.1,2.9-8.2,4.9-12c2.3-4.5,5.3-8.7,8.7-12.5c3.7-4.1,8.2-7.4,13.2-9.8c5.7-2.6,11.9-3.9,18.1-3.8V72.2z"></path><path d="M217.3,73.8c-4.8-9.7-12.9-17.5-22.7-22c-10.2-4.9-23-7.3-38.4-7.3c-15.1,0-28.2,2.4-39.4,7.3 c-11.2,4.9-20,11.9-26.2,21.1c-6.3,9.2-9.4,20.2-9.4,33.1c0,12.9,3.2,23.8,9.7,32.9c6.4,9.1,15.4,16,26.8,20.8 c11.5,4.8,24.6,7.2,39.5,7.2c13.3,0,24.6-1.8,33.9-5.4c9.2-3.6,16.6-8.5,22-14.8c5.3-6,8.8-13.5,10-21.4h-29.6 c-1.9,5.3-6.1,9.7-12.6,13.1c-6.5,3.4-14.6,5.1-24.4,5.1c-8.8,0-16.4-1.4-22.7-4.2c-5.9-2.5-11.1-6.5-15.1-11.5 c-3.6-4.7-5.9-10.3-6.7-16.2h111.5C224.3,96.1,222.3,83.6,217.3,73.8z M113.7,93.4c2-7.2,6.6-13.3,13.7-18.2s16.2-7.4,27.5-7.4h0 c11.4,0,20.5,2.3,27.2,6.9c6.4,4.2,10.5,11.1,11.2,18.7H113.7z"></path><path d="M274.1,0v133.9c0,5-0.2,10.4-0.7,16.1s-0.9,10.4-1.4,14h-28.5V0H274.1z"></path><path d="M383.2,73.4c-5.3-9-12.9-16.4-22.1-21.3c-9.3-5.1-20-7.6-32.1-7.6c-10.5,0-19.5,1.6-26.8,4.7c-6.9,2.8-13.1,7.3-17.9,13.1 c-4.6,5.7-8,12.3-10,19.4c-2.2,7.8-3.2,15.9-3.2,24c0,7.1,1.2,14.2,3.3,21.1c2.2,7.1,5.6,13.8,10.1,19.8 c4.7,6.2,10.9,11.2,17.9,14.6c7.4,3.7,16.2,5.5,26.6,5.5c11.1,0.2,22-2.5,31.8-7.6c9.3-5,17-12.4,22.4-21.4 c5.5-9.2,8.2-19.8,8.2-31.9C391.3,93.3,388.6,82.5,383.2,73.4z M355,125.3c-3.4,5.6-8.4,10.1-14.2,13.1 c-6.1,3.1-13.3,4.7-21.6,4.7h0c-9.3,0-17.3-1.6-24-4.7c-13-5.6-21.3-18.5-20.9-32.7c0-8,1.8-14.8,5.5-20.4 c3.9-5.7,9.3-10.2,15.6-12.8c6.8-3,14.7-4.5,23.8-4.5c13,0,23.1,3.5,30.2,10.3c7.1,6.9,10.7,16,10.7,27.3 C360.2,112.6,358.4,119.4,355,125.3z"></path><path d="M536.9,73.8c-4.8-9.7-12.9-17.5-22.7-22c-10.2-4.9-23-7.3-38.4-7.3c-15.1,0-28.2,2.4-39.4,7.3 c-11.2,4.9-20,11.9-26.2,21.1c-6.3,9.2-9.4,20.2-9.4,33.1c0,12.9,3.2,23.8,9.6,32.9c6.4,9.1,15.4,16,26.8,20.8s24.6,7.2,39.5,7.2 c13.3,0,24.6-1.8,33.9-5.4c9.2-3.6,16.6-8.5,22-14.8c5.3-6,8.8-13.5,10-21.4H513c-1.9,5.3-6.1,9.7-12.6,13.1 c-6.5,3.4-14.6,5.1-24.4,5.1c-8.8,0-16.4-1.4-22.7-4.2c-5.9-2.5-11.1-6.5-15.1-11.5c-3.6-4.7-5.9-10.3-6.7-16.2h111.5 C543.9,96.1,541.8,83.6,536.9,73.8z M433.2,93.4c2-7.2,6.6-13.3,13.6-18.2s16.2-7.4,27.5-7.4v0c11.5,0,20.5,2.3,27.2,6.9 c6.4,4.2,10.5,11.1,11.2,18.7H433.2z"></path><polygon points="513,125.2 513,125.2 513,125.2   "></polygon><path d="M560.8,0h30.6v164h-30.6V0z"></path></g><g className="againstLetters" mask="url(#against-mask)" style="opacity: 1; translate: none; rotate: none; scale: none; transform-origin: 0px 0px;" data-svg-origin="0 0" transform="matrix(1,0,0,1,0,0)"><path d="M361.5,243.1c-3.6-9-9.9-16.7-18-22c-8.2-5.4-19.1-8.1-32.6-8.1c-12.2,0-23.2,2.5-32.8,7.6c-9.4,4.9-17.4,12.3-23,21.3 c-5.6,9.1-8.5,19.8-8.5,32.2c0,12.1,2.8,22.7,8.3,31.9c5.4,9.1,13.3,16.5,22.6,21.4c9.7,5.2,20.6,7.8,31.6,7.7l0,0 c10.3,0,19.2-1.8,26.6-5.5c7-3.4,13.2-8.4,17.9-14.6c4.5-5.9,7.9-12.6,10.1-19.8c2.1-6.8,3.3-13.9,3.3-21.1 C367.3,263.6,365.3,253,361.5,243.1z M343.1,306.9c-6.8,3.1-14.8,4.7-24,4.7h0c-7.5,0.2-14.8-1.5-21.5-4.7 c-6-2.9-11-7.4-14.5-13.1c-3.6-5.9-5.3-12.7-5.2-19.6c0-11.3,3.6-20.4,10.8-27.2c7.2-6.8,17.3-10.2,30.4-10.2 c9.3,0,17.2,1.5,23.9,4.4c6.3,2.6,11.7,7,15.5,12.7c3.7,5.6,5.5,12.4,5.5,20.4C364.4,288.3,356.1,301.3,343.1,306.9z"></path><path d="M364,215.6h30.6v117h-28.5c-0.8-6.1-1.3-11.5-1.6-16.2s-0.5-9.3-0.5-13.9V215.6z"></path><path d="M671.6,243.1c-3.6-9-9.9-16.7-18-22c-8.2-5.4-19.1-8.1-32.6-8.1c-12.2,0-23.2,2.5-32.8,7.6c-9.4,4.9-17.4,12.3-23,21.3 c-5.6,9.1-8.5,19.8-8.5,32.2c0,12.1,2.8,22.7,8.3,31.9c5.4,9.1,13.3,16.5,22.6,21.4c9.7,5.2,20.6,7.8,31.7,7.7l0,0 c10.4,0,19.2-1.8,26.6-5.5c7-3.4,13.1-8.4,17.9-14.6c4.5-5.9,7.9-12.6,10.1-19.8c2.1-6.8,3.2-13.9,3.3-21.1 C677.4,263.6,675.5,253,671.6,243.1z M653.2,306.9c-6.8,3.1-14.8,4.7-24,4.7h0c-7.5,0.2-14.8-1.5-21.5-4.7 c-6-2.9-11-7.4-14.5-13.1c-3.6-5.9-5.3-12.7-5.2-19.6c0-11.3,3.6-20.4,10.8-27.2c7.2-6.8,17.3-10.2,30.4-10.2 c9.3,0,17.2,1.5,23.9,4.4c6.3,2.6,11.7,7,15.5,12.7c3.7,5.6,5.5,12.4,5.5,20.4C674.6,288.4,666.3,301.3,653.2,306.9z"></path><path d="M674.2,215.6h30.6v117h-28.5c-0.8-6.1-1.3-11.5-1.7-16.2s-0.5-9.3-0.5-13.9L674.2,215.6L674.2,215.6z"></path><rect x="727.5" y="164.3" width="29.7" height="26.8"></rect><rect x="726.9" y="215.6" width="30.6" height="117"></rect><rect x="780.5" y="215.6" width="30.6" height="117"></rect><path d="M865.5,213c6.8-0.1,13.5,0.9,20,2.8c5.9,1.8,11.3,4.7,16,8.7c4.7,4.1,8.3,9.2,10.6,14.9c2.5,6,3.8,13.2,3.8,21.5v71.5 h-30.6v-66.1c0-9.9-2.4-17.1-7.2-21.8s-12.6-6.9-23.4-6.9c-7.6-0.1-15.2,1.5-22.1,4.7c-6.1,2.8-11.6,6.8-16,11.9 c-4.1,4.8-6.4,9.8-7.1,14.9l-0.2-12c0.8-5.6,2.7-11,5.4-16c6.3-11.3,16.4-20,28.5-24.5C850.3,214.1,857.9,212.9,865.5,213"></path><path d="M931.4,293.7h28.2c1.7,5.3,5.3,9.7,10.7,13.1c5.4,3.4,12.5,5.1,21.3,5.1c6,0,10.6-0.5,13.9-1.6s5.6-2.7,6.8-4.8 c1.3-2.2,1.9-4.7,1.9-7.2c0.2-2.9-1-5.7-3.1-7.6c-2-1.8-5.2-3.2-9.4-4.4c-5.3-1.3-10.8-2.3-16.2-3.1c-6.6-1.1-12.9-2.4-19.1-4 c-5.7-1.4-11.1-3.5-16.2-6.2c-4.5-2.4-8.3-5.7-11.2-9.9c-2.8-4-4.1-8.9-4.1-14.7c-0.1-5.3,1.3-10.5,4.1-15.1 c2.9-4.6,6.9-8.3,11.5-11.1c5.4-3.2,11.3-5.5,17.4-6.8c7.1-1.6,14.3-2.4,21.5-2.4c11.6,0,21.3,1.7,29,5.1s13.5,8.1,17.3,14.1 c3.9,6.2,5.9,13.5,5.8,20.8h-27.1c-1.3-5.8-3.8-10-7.5-12.6s-9.6-3.9-17.4-3.9c-7.7,0-13.5,1.2-17.4,3.5s-5.9,5.6-5.9,9.6 c-0.1,3,1.2,5.9,3.7,7.6c2.4,1.8,6,3.3,10.8,4.4s10.8,2.3,18,3.5c6.1,1.3,12,2.7,17.5,4.2c5.2,1.4,10.2,3.4,14.9,6 c4.2,2.3,7.8,5.6,10.5,9.6c2.6,4,3.9,9.1,3.9,15.2c0,7.5-2.2,13.9-6.5,19.1s-10.5,9.1-18.5,11.9c-8,2.7-17.6,4.1-28.7,4.1 c-9.9,0-18.4-1.1-25.5-3.2c-6.3-1.7-12.3-4.5-17.8-8.2c-4.3-2.9-8-6.6-10.9-10.8c-2.3-3.3-4.1-7-5.3-10.9 C931.5,299.5,931.1,296.6,931.4,293.7"></path><rect x="1053.1" y="215.6" width="90.8" height="23.8"></rect><rect x="1083.2" y="183.6" width="30.6" height="149"></rect><path d="M512.2,395.3v-21.1c0-7.1-2.3-12.1-6.9-14.9c-4.6-2.8-10.8-4.2-18.7-4.2h-36.1c-5.9,0.1-11.8-0.4-17.6-1.6 c-4-0.8-7.9-2.4-11.3-4.6c-2.6-1.8-4.7-4.2-6-7.1c-1.2-2.7-1.9-5.7-1.9-8.7c0-6.2,2-10.9,6-14.1c4-3.2,9.5-5.3,16.3-6.4 c7.5-1.1,15-1.3,22.6-0.7l14.7,2.6c-9.8,0.3-17,1.1-21.8,2.4s-7.1,3.9-7.1,7.8c-0.1,2.2,1,4.2,2.8,5.5c1.9,1.3,4.5,2,7.9,2h37.9 c10.4,0,19.3,1.1,26.6,3.4s13,6,16.9,11.4c3.9,5.4,5.8,12.7,5.8,22v26.5H512.2z"></path><path d="M506.4,229.7c2.3,0.9,4.6,1.7,7,2.5c-2.5-1.5-5-2.9-7.7-4.2L506.4,229.7z"></path><path d="M552.1,239.4v-22.8l-58.4-0.2c-3.3-0.8-6.6-1.4-9.9-1.9c-3.4-0.5-6.9-0.7-10.4-0.7c-12.9,0-24.1,2.1-33.6,6.3 s-16.9,10.1-22,17.7c-5.1,7.6-7.7,16.5-7.7,27s2.6,19.5,7.9,27c5.3,7.4,12.7,13.1,22.2,16.9c9.5,3.8,20.6,5.7,33.2,5.7l0,0 c12.9,0,24-1.9,33.4-5.7c9.4-3.8,16.6-9.3,21.8-16.5s7.7-15.9,7.7-26c0.1-5.8-1.4-11.4-4.3-16.4c-3-4.8-6.8-9.1-11.3-12.6 c-2.3-1.8-4.7-3.5-7.2-5c-2.3-0.8-4.7-1.6-7-2.5l-0.7-1.6c2.6,1.2,5.2,2.6,7.7,4.2c4.8,1.6,9.6,3.1,14.6,4.3 C535.8,238.6,543.9,239.6,552.1,239.4z M506.9,265.1c0.1,5.2-1.3,10.4-4.2,14.8c-2.9,4.2-7,7.5-11.8,9.4 c-5.6,2.3-11.5,3.4-17.6,3.3l0,0c-6.1,0.1-12.1-1-17.8-3.3c-4.8-1.9-8.8-5.2-11.8-9.4c-0.6-1-1.2-2.1-1.7-3.2 c-6.3-13.8-0.2-30.1,13.6-36.4c5.6-2.3,11.6-3.5,17.7-3.4c6.1-0.1,12.1,1,17.7,3.4c4.7,2,8.8,5.4,11.6,9.7 C505.6,254.4,507,259.7,506.9,265.1z"></path></g><g className="boringLetters" mask="url(#boring-mask)" style="opacity: 1; translate: none; rotate: none; scale: none; transform-origin: 0px 0px;" data-svg-origin="0 0" transform="matrix(1,0,0,1,0,0)"><path d="M765.1,424.6c2.3,0.9,4.6,1.7,7,2.5c-2.5-1.5-5-2.9-7.7-4.2L765.1,424.6z"></path><path d="M67.4,358.5v133.1c0,5-0.2,10.3-0.7,16c-0.5,5.7-0.9,10.3-1.4,13.9H37V358.5H67.4L67.4,358.5z"></path><path d="M175.9,431.5c-5.4-9-12.7-16.1-22-21.2c-9.3-5.1-19.9-7.6-31.9-7.6c-10.5,0-19.3,1.6-26.7,4.7c-7.3,3.1-13.3,7.5-17.8,13 c-4.5,5.5-7.8,12-10,19.3c-2.1,7.3-3.2,15.3-3.2,23.9c0,6.9,1.1,13.8,3.3,20.9c2.2,7.1,5.5,13.7,10.1,19.7 c4.5,6,10.5,10.9,17.8,14.5c7.3,3.7,16.1,5.5,26.4,5.5l0,0c11.7,0,22.2-2.6,31.6-7.6c9.4-5.1,16.8-12.2,22.2-21.3 s8.2-19.4,8.2-31.7S181.3,440.6,175.9,431.5z M147.8,483.1c-3.4,5.5-8.1,9.9-14.2,13c-6.1,3.1-13.3,4.7-21.5,4.7v0 c-9.2,0-17.2-1.6-23.9-4.7c-6.7-3.1-11.9-7.5-15.4-13.1c-3.6-5.6-5.4-12.1-5.4-19.4c0-8,1.8-14.7,5.5-20.2 c3.7-5.5,8.8-9.8,15.6-12.8c6.7-3,14.6-4.5,23.6-4.5c13,0,23,3.4,30.1,10.3c7.1,6.9,10.6,15.9,10.6,27.1 C152.9,471.1,151.2,477.6,147.8,483.1z"></path><path d="M770.9,590.2v-21.1c0-7.1-2.3-12.1-6.9-14.9s-10.8-4.2-18.7-4.2h-36.1c-5.9,0.1-11.8-0.4-17.6-1.6 c-4-0.8-7.9-2.4-11.3-4.7c-2.6-1.8-4.7-4.2-6-7.1c-1.2-2.7-1.9-5.7-1.9-8.7c0-6.2,2-10.9,6-14.1c4-3.2,9.5-5.3,16.3-6.4 c7.5-1.1,15-1.3,22.6-0.7l14.7,2.6c-9.8,0.3-17,1.1-21.8,2.4c-4.7,1.3-7.1,3.9-7.1,7.8c-0.1,2.2,1,4.2,2.8,5.5 c1.9,1.3,4.5,2,7.9,2h37.9c10.4,0,19.3,1.1,26.7,3.4s13,6,16.9,11.4c3.9,5.3,5.8,12.7,5.8,22v26.5L770.9,590.2L770.9,590.2z"></path><path d="M810.7,434.3v-22.8l-58.4-0.2c-3.3-0.8-6.6-1.4-9.9-1.9c-3.4-0.5-6.9-0.7-10.4-0.7c-12.9,0-24.1,2.1-33.6,6.3 s-16.9,10.1-22,17.7c-5.1,7.6-7.7,16.5-7.7,27s2.6,19.5,7.9,27c5.3,7.5,12.7,13.1,22.2,16.9c9.5,3.8,20.6,5.7,33.2,5.7l0,0 c12.9,0,24-1.9,33.4-5.7s16.6-9.3,21.8-16.5s7.7-15.9,7.7-26c0.1-5.8-1.4-11.4-4.3-16.4c-3-4.8-6.8-9.1-11.3-12.6 c-2.3-1.8-4.7-3.5-7.2-5c-2.3-0.8-4.7-1.6-7-2.5l-0.7-1.6c2.6,1.2,5.2,2.6,7.7,4.2c4.8,1.6,9.6,3.1,14.6,4.3 C794.5,433.5,802.6,434.5,810.7,434.3z M765.6,459.9c0.1,5.2-1.3,10.4-4.2,14.8c-2.9,4.2-7,7.5-11.8,9.4 c-5.6,2.3-11.5,3.4-17.6,3.3v0c-6.1,0.1-12.1-1-17.8-3.3c-4.8-1.9-8.8-5.2-11.8-9.4c-0.6-1-1.2-2.1-1.7-3.2 c-6.3-13.8-0.2-30.1,13.6-36.4c5.6-2.4,11.6-3.5,17.7-3.4c6.1-0.1,12.1,1,17.7,3.4c4.7,2,8.8,5.4,11.6,9.6 C764.2,449.3,765.7,454.6,765.6,459.9z"></path><rect x="357.5" y="408.7" width="30.2" height="118.2"></rect><path d="M432.2,436.2c-8.7,0-16.2,1.7-22.6,5c-5.9,3-11.1,7.1-15.4,12.2c-3.5,4.1-6.3,8.9-8.1,14l-0.2-12.8c0.4-2.8,1-5.6,1.9-8.3 c1.3-4.1,2.9-8.1,4.9-11.9c2.3-4.5,5.2-8.6,8.6-12.3c3.7-4,8.1-7.3,13-9.7c5.6-2.6,11.7-3.9,17.9-3.7V436.2z"></path><rect x="452.6" y="369.7" width="30.2" height="26.5"></rect><rect x="452.6" y="409" width="30.2" height="118"></rect><rect x="512.3" y="408.7" width="30.3" height="118.5"></rect><path d="M596.4,409c6.7-0.1,13.4,0.9,19.8,2.8c5.8,1.7,11.2,4.7,15.8,8.6c4.6,4,8.2,9.1,10.5,14.8c2.5,6,3.7,13.1,3.7,21.3v70.8 h-30.3v-65.4c0-9.8-2.4-17-7.1-21.5s-12.5-6.9-23.2-6.9c-7.5-0.1-15,1.5-21.9,4.6c-6,2.8-11.4,6.8-15.8,11.8 c-4,4.7-6.4,9.7-7,14.8l-0.2-11.9c0.8-5.5,2.6-10.9,5.3-15.8c6.2-11.2,16.2-19.8,28.2-24.2C581.4,410.2,588.8,408.9,596.4,409"></path></g></svg>