<svg xmlns="http://www.w3.org/2000/svg" viewBox="0 0 90 90"><path fill="currentColor" d="M5 5h80v80H5V5zM0 90h90V0H0v90zm64.66-15.67l-5.15-16.61h-.1l-5.35 16.61H47.6l9.49-24.09h4.74l9.39 24.09h-6.56zm-39.77 0V55.67h-6.66v-5.43H37.6v5.43h-6.66v18.66h-6.06zm34.52-59.16c-3.94-.1-7.67 1.74-9.99 4.92-.64.81-1.15 1.7-1.52 2.67-.6 1.64-.9 3.38-.9 5.13v.05c.07 6.78 5.62 12.22 12.4 12.15h.56c6.88-.29 12.22-6.1 11.93-12.97-.28-6.69-5.79-11.96-12.48-11.94m.1 19.48c-3.94 0-6.56-3.38-6.56-7.18s2.62-6.97 6.46-6.97 6.46 3.38 6.46 7.07-2.52 7.08-6.36 7.08m-28.87 5.02l-6.46-10.35h-.1v10.35h-6.06v-24.1h6.06v10.87h.1l6.66-10.87h6.36l-7.87 12 8.38 12.1h-7.06z"></path></svg>